<?xml version="1.0" standalone="no"?>
<!DOCTYPE svg PUBLIC "-//W3C//DTD SVG 20010904//EN"
 "http://www.w3.org/TR/2001/REC-SVG-20010904/DTD/svg10.dtd">
<svg version="1.0" xmlns="http://www.w3.org/2000/svg"
 width="30.000000pt" height="30.000000pt" viewBox="0 0 30.000000 30.000000"
 preserveAspectRatio="xMidYMid meet">

<g transform="translate(0.000000,30.000000) scale(0.100000,-0.100000)"
fill="#000000" stroke="none">
<path d="M120 265 c-25 -26 -21 -47 5 -25 13 11 15 4 15 -54 0 -37 4 -66 10
-66 6 0 10 29 10 66 0 58 2 65 15 54 26 -22 30 -1 5 25 -13 14 -26 25 -30 25
-4 0 -17 -11 -30 -25z"/>
<path d="M64 197 c-3 -8 -4 -47 -2 -88 l3 -74 85 0 85 0 0 85 c0 81 -1 85 -22
88 -13 2 -23 -1 -23 -7 0 -6 7 -11 15 -11 12 0 15 -14 15 -70 l0 -70 -70 0
-70 0 0 70 c0 56 3 70 15 70 8 0 15 5 15 10 0 15 -40 12 -46 -3z"/>
</g>
</svg>
